<?xml version="1.0" standalone="no"?>
<!DOCTYPE svg PUBLIC "-//W3C//DTD SVG 20010904//EN"
 "http://www.w3.org/TR/2001/REC-SVG-20010904/DTD/svg10.dtd">
<svg version="1.0" xmlns="http://www.w3.org/2000/svg"
 width="512.000000pt" height="512.000000pt" viewBox="0 0 512.000000 512.000000"
 preserveAspectRatio="xMidYMid meet">

<g transform="translate(0.000000,512.000000) scale(0.100000,-0.100000)"
fill="#000000" stroke="none">
<path d="M2375 4940 c-198 -17 -445 -71 -624 -136 -139 -51 -380 -172 -498
-251 -354 -236 -628 -541 -813 -904 -292 -573 -346 -1213 -153 -1821 248 -784
890 -1390 1687 -1593 215 -54 341 -69 591 -69 248 0 372 14 590 69 734 185
1347 720 1629 1422 324 807 191 1715 -351 2393 -379 476 -934 789 -1548 875
-130 18 -384 26 -510 15z m355 -320 c600 -52 1135 -347 1495 -825 307 -409
454 -933 404 -1441 -41 -417 -211 -817 -488 -1146 -296 -352 -736 -607 -1196
-692 -589 -110 -1204 45 -1671 419 -739 593 -984 1594 -602 2461 201 456 598
852 1056 1053 322 141 666 200 1002 171z"/>
</g>
</svg>
